<svg width="37" height="40" viewBox="0 0 37 40" fill="none" xmlns="http://www.w3.org/2000/svg">
<path d="M20.3096 36.5809L25.1112 35.0356V33.8048L20.3096 35.3501V36.5809Z" fill="#FFCC33"/>
<path d="M20.3096 34.3276L25.1112 32.7824V31.5515L20.3096 33.0968V34.3276Z" fill="#FFCC33"/>
<path d="M36.0875 19.1135L36.0867 19.1127L36.0861 19.1119C35.8049 18.798 35.443 18.5673 35.0397 18.445L19.8007 13.839C19.0623 13.6138 18.2736 13.6138 17.5352 13.8388L2.2946 18.4453C1.89167 18.5676 1.53005 18.7982 1.24913 19.1119L1.24848 19.1128L1.24773 19.1135C0.873858 19.5331 0.667188 20.0754 0.66701 20.6374V32.7551C0.66504 33.2469 0.822306 33.7261 1.11529 34.121C1.40828 34.516 1.82124 34.8055 2.29243 34.9463L17.5288 39.5736C17.8977 39.6864 18.2813 39.7436 18.6671 39.7434C18.7199 39.7432 18.7724 39.7361 18.8233 39.7223C18.8221 39.7274 18.8214 39.7327 18.8201 39.7378C19.1538 39.7259 19.4845 39.6709 19.8041 39.5739L35.0538 34.9423C35.5221 34.7995 35.9319 34.5097 36.2224 34.1157C36.513 33.7218 36.6689 33.2447 36.667 32.7551V20.6374C36.6672 20.0756 36.4609 19.5332 36.0875 19.1135ZM18.0617 38.4638C18.0013 38.4499 17.9414 38.4338 17.8819 38.4156L2.64422 33.7878C2.42207 33.7215 2.22735 33.5851 2.08918 33.399C1.951 33.2128 1.8768 32.987 1.87766 32.7551V20.6374C1.87768 20.4966 1.90532 20.3572 1.95902 20.227L17.7322 25.018L17.7896 25.0354L18.0617 25.1181V38.4638ZM18.6671 24.0367L3.36111 19.3876L17.8863 14.9974C18.396 14.8422 18.9403 14.8423 19.4498 14.9977L33.974 19.3876L29.2057 20.8358L22.0764 18.6871C21.9985 18.6629 21.9153 18.6621 21.837 18.6849L18.243 19.7054C18.197 19.7185 18.1565 19.7462 18.1275 19.7843C18.0985 19.8224 18.0826 19.8688 18.0823 19.9167C18.0819 19.9645 18.097 20.0112 18.1254 20.0498C18.1537 20.0883 18.1938 20.1167 18.2396 20.1305L24.9186 22.138L18.6671 24.0367ZM35.4564 32.7551C35.4575 32.9853 35.3845 33.2096 35.2482 33.395C35.1118 33.5804 34.9195 33.717 34.6995 33.7846L19.4505 38.4161C19.3917 38.4341 19.3323 38.4501 19.2724 38.4639V25.1181L25.9412 23.0926V28.048C25.9412 28.1139 25.9564 28.1789 25.9857 28.238C26.0149 28.297 26.0574 28.3485 26.1098 28.3885C26.1622 28.4285 26.2231 28.4558 26.2878 28.4683C26.3525 28.4809 26.4192 28.4783 26.4827 28.4609L29.9357 27.5098C30.0261 27.485 30.1059 27.4311 30.1627 27.3565C30.2195 27.2819 30.2502 27.1907 30.2501 27.0969V21.9186C30.2502 21.8745 30.2473 21.8304 30.2417 21.7867V21.7865L35.4563 20.2027L35.4564 32.7551Z" fill="#FFCC33"/>
<rect x="7.69238" y="0.256599" width="23.1355" height="21.1802" rx="10.5901" fill="white"/>
<path d="M13.0782 4.27212C14.7143 2.66888 16.9148 1.77263 19.2054 1.77651C19.2751 1.77651 19.3444 1.77733 19.4146 1.77894C20.9655 1.81703 22.4787 2.26486 23.8006 3.07695C25.1225 3.88904 26.2059 5.03646 26.9409 6.40271L27.1677 6.82571L25.0544 6.35602L24.7246 7.83963L28.6019 8.70153C28.7824 8.74179 28.9713 8.7148 29.1333 8.62564C29.2953 8.53648 29.4192 8.39127 29.4817 8.21726L30.8279 4.48041L29.3982 3.96532L28.5747 6.2509L28.3427 5.8042C27.4928 4.16848 26.2193 2.79099 24.6551 1.81566C23.0909 0.840335 21.2936 0.302953 19.4507 0.259659C19.367 0.257612 19.2844 0.256599 19.2009 0.256599C16.552 0.26084 14.0064 1.28429 12.0917 3.11476C10.1771 4.94522 9.04026 7.44231 8.91699 10.0883L10.4368 10.1247C10.5411 7.909 11.4857 5.81623 13.0782 4.27212Z" fill="#FFCC33"/>
<path d="M9.941 15.4669L10.174 15.9129C11.0281 17.5464 12.3052 18.9205 13.8719 19.8918C15.4385 20.8631 17.2372 21.3959 19.0801 21.4345C19.1548 21.436 19.229 21.4368 19.3032 21.4368C21.9567 21.4328 24.5066 20.4059 26.4223 18.5698C28.3381 16.7336 29.4722 14.2296 29.5887 11.5785L28.069 11.5461C27.9617 13.8 26.9917 15.9262 25.3598 17.4846C23.7278 19.0429 21.5591 19.9138 19.3027 19.917C19.2398 19.917 19.1759 19.9164 19.1127 19.915C17.5617 19.8809 16.0473 19.4371 14.7233 18.6284C13.3993 17.8198 12.3129 16.6751 11.5744 15.3107L11.3466 14.8883L13.4613 15.3526L13.7872 13.868L9.90744 13.0164C9.72689 12.9764 9.53796 13.0038 9.3762 13.0934C9.21443 13.183 9.09096 13.3286 9.029 13.5028L7.69238 17.2431L9.12349 17.7546L9.941 15.4669Z" fill="#FFCC33"/>
<path d="M19.5156 15.9231V14.635L19.7045 14.6079C20.3046 14.5218 20.8497 14.2115 21.2302 13.7395C21.6107 13.2676 21.7982 12.669 21.755 12.0643C21.7118 11.4596 21.4412 10.8938 20.9975 10.4806C20.5538 10.0675 19.9701 9.83784 19.3639 9.83783H18.6697C18.4467 9.83703 18.2332 9.74789 18.0758 9.58995C17.9184 9.43201 17.8301 9.21814 17.8301 8.99518C17.8301 8.77222 17.9184 8.55835 18.0758 8.40041C18.2332 8.24247 18.4467 8.15333 18.6697 8.15253H21.6117V6.78348H19.6989V5.49296H18.3298V6.80326L18.1604 6.84336C17.6328 6.96813 17.1693 7.28238 16.8582 7.72641C16.5471 8.17043 16.4099 8.71328 16.4728 9.2518C16.5356 9.79033 16.7941 10.287 17.1991 10.6474C17.6041 11.0079 18.1274 11.207 18.6696 11.2069H19.3639C19.636 11.2078 19.8967 11.3165 20.0888 11.5093C20.2809 11.702 20.3888 11.9631 20.3888 12.2352C20.3888 12.5074 20.2809 12.7684 20.0888 12.9612C19.8967 13.1539 19.636 13.2627 19.3639 13.2636H16.417V14.6326H18.1465V15.9231H19.5156Z" fill="#FFCC33"/>
</svg>
