<svg width="36" height="36" viewBox="0 0 36 36" fill="none" xmlns="http://www.w3.org/2000/svg">
<g clip-path="url(#clip0_2296_208039)">
<path d="M8.35695 27.7103C7.96862 27.7103 7.65186 27.3955 7.65186 27.0072C7.65186 26.6189 7.96468 26.3041 8.35302 26.3041H8.35702C8.74536 26.3041 9.06015 26.6189 9.06015 27.0072C9.06015 27.3955 8.74529 27.7103 8.35695 27.7103Z" fill="#FFCC33"/>
<path d="M34.9337 24.3328V18.2621C34.9337 18.175 34.9168 18.0857 34.8849 18.0047L31.3691 9.07076C31.2633 8.80188 31.0038 8.62512 30.7148 8.62512H23.9758V5.67319C23.9758 5.28485 23.6609 4.97006 23.2727 4.97006H14.5151C14.1268 4.97006 13.812 5.28485 13.812 5.67319C13.812 6.06152 14.1268 6.37631 14.5151 6.37631H22.5695V8.62519H20.5661C20.1778 8.62519 19.8629 8.93998 19.8629 9.32831V24.1862H11.1995C10.4744 23.445 9.46702 22.9845 8.35453 22.9845C7.24205 22.9845 6.23475 23.4451 5.50955 24.1862H2.47254V14.0703H11.7352V15.236C11.7352 15.4991 11.8821 15.7401 12.1159 15.8608C12.2175 15.9133 12.3281 15.9391 12.4383 15.9391C12.5817 15.9391 12.7245 15.8952 12.8457 15.809L17.4418 12.5417C17.6273 12.4098 17.7375 12.1962 17.7375 11.9686C17.7375 11.741 17.6273 11.5275 17.4418 11.3956L12.8457 8.12822C12.6314 7.97585 12.3498 7.95581 12.1159 8.07647C11.8821 8.19712 11.7352 8.43823 11.7352 8.70134V9.86698H2.47254V6.37631H8.20104C8.58938 6.37631 8.90416 6.06152 8.90416 5.67319C8.90416 5.28485 8.58938 4.97006 8.20104 4.97006H1.76941C1.38108 4.97006 1.06629 5.28485 1.06629 5.67319V24.3328C0.439523 24.6064 0 25.2336 0 25.9623V26.7098C0 27.6902 0.793758 28.4879 1.76941 28.4879H4.64055C5.22766 29.9752 6.67062 31.0298 8.35453 31.0298C10.0384 31.0298 11.4814 29.9752 12.0685 28.4879H22.921C23.5081 29.9752 24.951 31.0298 26.635 31.0298C28.319 31.0298 29.7618 29.9752 30.349 28.4879H34.2307C35.2063 28.4879 36.0001 27.6902 36.0001 26.7098V25.9623C36 25.2336 35.5605 24.6064 34.9337 24.3328ZM2.47254 11.2732H12.4384C12.8267 11.2732 13.1415 10.9584 13.1415 10.5701V10.0639L15.8209 11.9686L13.1415 13.8734V13.3671C13.1415 12.9788 12.8267 12.664 12.4384 12.664H2.47254V11.2732ZM4.36071 27.0817H1.76941C1.57254 27.0817 1.40625 26.9114 1.40625 26.7098V25.9624C1.40625 25.7618 1.57254 25.5924 1.76941 25.5924H4.61468C4.44973 26.0328 4.35888 26.5095 4.35888 27.0073C4.35888 27.0322 4.36029 27.0568 4.36071 27.0817ZM8.35453 29.6236C6.9267 29.6236 5.76513 28.4499 5.76513 27.0072C5.76513 25.5645 6.92677 24.3907 8.35453 24.3907C9.7823 24.3907 10.944 25.5645 10.944 27.0072C10.944 28.4499 9.7823 29.6236 8.35453 29.6236ZM33.1983 17.559H26.0685V13.0093H31.4078L33.1983 17.559ZM21.2692 10.0314H30.2359L30.8544 11.6031H25.3654C24.9771 11.6031 24.6623 11.9179 24.6623 12.3063V18.2622C24.6623 18.6506 24.9771 18.9653 25.3654 18.9653H33.5275V20.8726H32.4926C32.1043 20.8726 31.7895 21.1874 31.7895 21.5758C31.7895 21.9641 32.1043 22.2789 32.4926 22.2789H33.5275V24.1862H29.48C28.7549 23.445 27.7475 22.9845 26.635 22.9845C25.5225 22.9845 24.5152 23.4451 23.79 24.1862H21.2692V10.0314ZM12.3484 27.0817C12.3488 27.0568 12.3502 27.0322 12.3502 27.0072C12.3502 26.5095 12.2593 26.0328 12.0945 25.5924H22.8952C22.7303 26.0327 22.6394 26.5094 22.6394 27.0072C22.6394 27.0322 22.6408 27.0568 22.6413 27.0817H12.3484ZM26.635 29.6236C25.2072 29.6236 24.0456 28.4499 24.0456 27.0072C24.0456 25.5645 25.2072 24.3907 26.635 24.3907C28.0628 24.3907 29.2244 25.5645 29.2244 27.0072C29.2244 28.4499 28.0628 29.6236 26.635 29.6236ZM34.5938 26.7098C34.5938 26.9114 34.4275 27.0817 34.2306 27.0817H30.6288C30.6292 27.0568 30.6307 27.0322 30.6307 27.0072C30.6307 26.5095 30.5397 26.0328 30.3749 25.5924H34.2307C34.4275 25.5924 34.5938 25.7617 34.5938 25.9623V26.7098H34.5938Z" fill="#FFCC33"/>
<path d="M26.6373 26.3041H26.6333C26.245 26.3041 25.9321 26.6189 25.9321 27.0072C25.9321 27.3955 26.249 27.7103 26.6372 27.7103C27.0255 27.7103 27.3403 27.3955 27.3403 27.0072C27.3403 26.6189 27.0256 26.3041 26.6373 26.3041Z" fill="#FFCC33"/>
<path d="M4.95605 20.1613C4.56772 20.1613 4.25293 20.4761 4.25293 20.8644C4.25293 21.2528 4.56772 21.5676 4.95605 21.5676H8.41205C8.80039 21.5676 9.11518 21.2528 9.11518 20.8644C9.11518 20.4761 8.80039 20.1613 8.41205 20.1613H4.95605Z" fill="#FFCC33"/>
<path d="M11.2239 18.0191C11.2239 17.6307 10.9091 17.3159 10.5207 17.3159H4.95605C4.56772 17.3159 4.25293 17.6307 4.25293 18.0191C4.25293 18.4074 4.56772 18.7222 4.95605 18.7222H10.5207C10.9091 18.7222 11.2239 18.4074 11.2239 18.0191Z" fill="#FFCC33"/>
<path d="M11.3579 6.37631H11.3599C11.7482 6.37631 12.062 6.06152 12.062 5.67319C12.062 5.28485 11.7462 4.97006 11.3579 4.97006C10.9696 4.97006 10.6548 5.28485 10.6548 5.67319C10.6548 6.06152 10.9696 6.37631 11.3579 6.37631Z" fill="#FFCC33"/>
</g>
<defs>
<clipPath id="clip0_2296_208039">
<rect width="36" height="36" fill="white"/>
</clipPath>
</defs>
</svg>
