<svg width="36" height="36" viewBox="0 0 36 36" fill="none" xmlns="http://www.w3.org/2000/svg">
<path d="M12.9375 11.25V10.125C10.4563 10.125 8.4375 12.1438 8.4375 14.625H9.5625C9.5625 12.7637 11.0762 11.25 12.9375 11.25Z" fill="#FFCC33"/>
<path d="M33.7495 0.5625H20.2495C19.3191 0.5625 18.562 1.31962 18.562 2.25V3.65062C17.6592 3.32606 16.6602 3.40369 15.8187 3.86887C15.2218 2.87831 14.1396 2.25 12.9088 2.25C11.7248 2.25 10.6504 2.87831 10.0547 3.86944C9.04278 3.30806 7.79909 3.30187 6.77422 3.89363L6.72472 3.92231C5.69984 4.51406 5.08391 5.59519 5.06309 6.75112C3.90716 6.77194 2.82603 7.38788 2.23428 8.41275L2.20559 8.46225C1.61384 9.48712 1.62172 10.7314 2.18141 11.7428C1.19028 12.339 0.561969 13.4128 0.561969 14.5963V14.6531C0.561969 15.8372 1.19028 16.9116 2.18141 17.5072C1.62116 18.5186 1.61384 19.7623 2.20559 20.7878L2.23428 20.8372C2.82659 21.8621 3.90772 22.4781 5.06309 22.4989C5.06928 22.8431 5.13453 23.1784 5.24084 23.4984L0.488281 31.2542L5.77747 29.9318L7.09653 35.2069L12.0696 26.8841C12.3553 26.9601 12.6552 27 12.9651 27C13.2542 27 13.5366 26.9612 13.8077 26.8903L18.7774 35.2074L20.0965 29.9323L25.3857 31.2547L20.6331 23.499C20.74 23.1789 20.8047 22.8437 20.8108 22.4994C21.9673 22.4786 23.0485 21.8627 23.6397 20.8378L23.6683 20.7883C24.2607 19.7634 24.2528 18.5192 23.6925 17.5078C24.5262 17.0061 25.0977 16.1617 25.2602 15.1881H33.7495C34.6798 15.1881 35.437 14.4309 35.437 13.5006V2.25C35.437 1.31962 34.6798 0.5625 33.7495 0.5625ZM27.562 2.8125V3.9375H26.437V2.8125H25.312V3.9375H24.187V1.6875H29.812V3.9375H28.687V2.8125H27.562ZM18.562 10.9018C17.352 9.07987 15.2837 7.875 12.937 7.875C9.21491 7.875 6.18697 10.9029 6.18697 14.625C6.18697 18.3471 9.21491 21.375 12.937 21.375C16.5066 21.375 19.4299 18.5884 19.6639 15.0767C19.8473 15.1447 20.043 15.1875 20.2495 15.1875H20.7833C20.493 19.2673 17.0893 22.5 12.937 22.5C8.59447 22.5 5.06197 18.9675 5.06197 14.625C5.06197 10.2825 8.59447 6.75 12.937 6.75C15.0508 6.75 17.086 7.61737 18.562 9.12544V10.9018ZM18.562 14.625C18.562 17.7266 16.0386 20.25 12.937 20.25C9.83534 20.25 7.31197 17.7266 7.31197 14.625C7.31197 11.5234 9.83534 9 12.937 9C16.0386 9 18.562 11.5234 18.562 14.625ZM7.52741 32.2926L6.59647 28.5677L2.88566 29.4953L5.87591 24.6156C6.11441 24.8929 6.39622 25.1376 6.72528 25.3277L6.77478 25.3564C7.79966 25.9476 9.04447 25.9402 10.0558 25.3806C10.3062 25.7962 10.6459 26.1433 11.0425 26.4116L7.52741 32.2926ZM22.9883 29.4958L19.2775 28.5682L18.3465 32.2931L14.8343 26.4161C15.228 26.1473 15.5678 25.7991 15.8192 25.3811C16.8306 25.9408 18.0743 25.9481 19.0997 25.3569L19.1492 25.3283C19.4783 25.1381 19.7601 24.8934 19.9986 24.6161L22.9883 29.4958ZM22.6693 16.7473L21.8672 17.0173L22.4269 17.6524C23.0603 18.3707 23.1672 19.4046 22.6941 20.2247L22.6654 20.2742C22.1918 21.0938 21.2468 21.5196 20.304 21.3289L19.4743 21.1618L19.6414 21.9915C19.8304 22.9303 19.4068 23.8792 18.5867 24.3529L18.5372 24.3816C17.7177 24.8546 16.6827 24.7472 15.9649 24.1144L15.3298 23.5547L15.0598 24.3568C14.7538 25.2652 13.9123 25.875 12.9088 25.875C11.961 25.875 11.1195 25.2652 10.8141 24.3574L10.5441 23.5553L9.90903 24.1149C9.19128 24.7483 8.15741 24.8563 7.33672 24.3821L7.28722 24.3534C6.46709 23.8798 6.04353 22.9309 6.23253 21.9921L6.39959 21.1624L5.56991 21.3294C4.62941 21.5196 3.68216 21.0949 3.20853 20.2747L3.17984 20.2253C2.70622 19.4051 2.81366 18.3713 3.44703 17.6529L4.00672 17.0179L3.20459 16.7479C2.29672 16.4419 1.68697 15.6004 1.68697 14.6531V14.5963C1.68697 13.6491 2.29672 12.8076 3.20459 12.5021L4.00672 12.2321L3.44703 11.5971C2.81422 10.8788 2.70678 9.84488 3.17984 9.02475L3.20853 8.97525C3.68216 8.15513 4.63334 7.73044 5.56991 7.92056L6.39959 8.08763L6.23253 7.25794C6.04297 6.31856 6.46709 5.36963 7.28722 4.89656L7.33672 4.86788C8.15741 4.39369 9.19072 4.50169 9.90903 5.13506L10.5441 5.69475L10.8141 4.89262C11.1201 3.98475 11.9616 3.375 12.9651 3.375C13.9129 3.375 14.7544 3.98475 15.0598 4.89262L15.3298 5.69475L15.9649 5.13506C16.6843 4.50281 17.7182 4.39481 18.5372 4.86788L18.562 4.8825V7.61569C16.9746 6.345 14.9895 5.625 12.937 5.625C7.97459 5.625 3.93697 9.66263 3.93697 14.625C3.93697 19.5874 7.97459 23.625 12.937 23.625C17.7098 23.625 21.6158 19.8878 21.9083 15.1875H24.1138C23.9327 15.9047 23.4012 16.5015 22.6693 16.7473ZM34.312 13.5C34.312 13.8105 34.06 14.0625 33.7495 14.0625H20.2495C19.939 14.0625 19.687 13.8105 19.687 13.5V2.25C19.687 1.9395 19.939 1.6875 20.2495 1.6875H23.062V5.0625H30.937V1.6875H33.7495C34.06 1.6875 34.312 1.9395 34.312 2.25V13.5Z" fill="#FFCC33"/>
<path d="M29.8125 11.8125H30.9375V12.9375H29.8125V11.8125Z" fill="#FFCC33"/>
<path d="M32.0625 11.8125H33.1875V12.9375H32.0625V11.8125Z" fill="#FFCC33"/>
<path d="M27.5625 11.8125H28.6875V12.9375H27.5625V11.8125Z" fill="#FFCC33"/>
<path d="M27.5625 9.5625H33.1875V10.6875H27.5625V9.5625Z" fill="#FFCC33"/>
<path d="M11.8127 17.2046L10.5229 15.9148L9.72754 16.7102L11.8127 18.7954L17.2729 13.3352L16.4775 12.5398L11.8127 17.2046Z" fill="#FFCC33"/>
</svg>
