<svg width="37" height="36" viewBox="0 0 37 36" fill="none" xmlns="http://www.w3.org/2000/svg">
<path d="M4.64844 21.0913H5.21052C5.59885 21.0913 5.91364 20.7764 5.91364 20.3882C5.91364 19.9999 5.59885 19.685 5.21052 19.685H4.64844C4.2601 19.685 3.94531 19.9999 3.94531 20.3882C3.94531 20.7764 4.2601 21.0913 4.64844 21.0913Z" fill="#FFCC33"/>
<path d="M12.2886 21.0913C12.6769 21.0913 12.9917 20.7764 12.9917 20.3882C12.9917 19.9999 12.6769 19.685 12.2886 19.685H8.02344C7.6351 19.685 7.32031 19.9999 7.32031 20.3882C7.32031 20.7764 7.6351 21.0913 8.02344 21.0913H12.2886Z" fill="#FFCC33"/>
<path d="M4.64844 24.4287H12.2899C12.6782 24.4287 12.993 24.1139 12.993 23.7256C12.993 23.3374 12.6782 23.0225 12.2899 23.0225H4.64844C4.2601 23.0225 3.94531 23.3374 3.94531 23.7256C3.94531 24.1139 4.2601 24.4287 4.64844 24.4287Z" fill="#FFCC33"/>
<path d="M27.9461 14.537V2.74423C27.9461 1.48303 26.919 0.457031 25.6565 0.457031H2.62063C1.35922 0.457031 0.333008 1.4831 0.333008 2.74423V11.1028C0.333008 11.4911 0.647797 11.806 1.03613 11.806C1.42447 11.806 1.73926 11.4911 1.73926 11.1028V2.74423C1.73926 2.25844 2.13462 1.86328 2.62063 1.86328H9.14239V10.9833C9.14239 11.2381 9.28027 11.473 9.50274 11.5972C9.72521 11.7214 9.99753 11.7156 10.2144 11.5818L14.1386 9.1632L18.0627 11.5818C18.5236 11.8659 19.1348 11.522 19.1348 10.9832V1.86328H25.6565C26.1436 1.86328 26.5399 2.25844 26.5399 2.74423V14.3315C26.2655 14.3102 25.9881 14.2991 25.7084 14.2991C19.8499 14.2991 15.0837 19.0641 15.0837 24.921C15.0837 25.512 15.1331 26.0917 15.2264 26.6567H2.62063C2.13462 26.6567 1.73926 26.2607 1.73926 25.7738V17.4152C1.73926 17.0269 1.42447 16.7121 1.03613 16.7121C0.647797 16.7121 0.333008 17.0269 0.333008 17.4152V25.7739C0.333008 27.0361 1.35922 28.0631 2.62063 28.0631H15.5583C16.9014 32.3909 20.9436 35.543 25.7084 35.543C31.5668 35.543 36.333 30.778 36.333 24.9211C36.333 19.8314 32.7336 15.5671 27.9461 14.537ZM17.7285 9.72401L14.5075 7.73873C14.2813 7.59937 13.9959 7.59937 13.7697 7.73873L10.5486 9.72401V1.86328H17.7285V9.72401ZM25.7084 34.1367C20.6253 34.1367 16.49 30.0026 16.49 24.9211C16.49 19.8396 20.6253 15.7054 25.7084 15.7054C30.7914 15.7054 34.9268 19.8395 34.9268 24.9211C34.9268 30.0026 30.7914 34.1367 25.7084 34.1367Z" fill="#FFCC33"/>
<path d="M26.9855 20.8487H24.2995L25.5531 19.5965C25.8279 19.3221 25.8281 18.8768 25.5537 18.6021C25.2793 18.3273 24.8341 18.3271 24.5593 18.6015L22.1038 21.0543C21.8328 21.3229 21.8328 21.7806 22.1038 22.0492L24.5593 24.502C24.6966 24.6391 24.8764 24.7077 25.0562 24.7077C25.2362 24.7077 25.4163 24.6389 25.5536 24.5015C25.8281 24.2268 25.8279 23.7815 25.5531 23.507L24.2995 22.2548H26.9855C28.687 22.2548 30.0712 23.6386 30.0712 25.3395C30.0712 27.0414 28.687 28.4261 26.9855 28.4261H20.6416C20.2533 28.4261 19.9385 28.741 19.9385 29.1292C19.9385 29.5175 20.2533 29.8323 20.6416 29.8323H26.9855C29.4624 29.8323 31.4775 27.8168 31.4775 25.3395C31.4774 22.8633 29.4624 20.8487 26.9855 20.8487Z" fill="#FFCC33"/>
<path d="M1.03613 14.9642C1.42447 14.9642 1.73926 14.6474 1.73926 14.2591C1.73926 13.8708 1.42447 13.556 1.03613 13.556C0.647797 13.556 0.333008 13.8708 0.333008 14.2591V14.2631C0.333008 14.6514 0.647797 14.9642 1.03613 14.9642Z" fill="#FFCC33"/>
</svg>
